<?xml version="1.0" standalone="no"?>
<!DOCTYPE svg PUBLIC "-//W3C//DTD SVG 20010904//EN"
 "http://www.w3.org/TR/2001/REC-SVG-20010904/DTD/svg10.dtd">
<svg version="1.0" xmlns="http://www.w3.org/2000/svg"
 width="320.000000pt" height="390.000000pt" viewBox="0 0 320.000000 390.000000"
 preserveAspectRatio="xMidYMid meet">
<metadata>
Created by potrace 1.16, written by Peter Selinger 2001-2019
</metadata>
<g transform="translate(0.000000,390.000000) scale(0.100000,-0.100000)"
fill="#000000" stroke="none">
<path d="M0 1950 l0 -1950 1600 0 1600 0 0 1950 0 1950 -1600 0 -1600 0 0
-1950z m1750 1084 c284 -51 541 -212 717 -451 69 -92 142 -236 171 -336 19
-62 19 -68 4 -62 -53 20 -188 55 -199 51 -7 -3 -45 8 -85 25 -463 193 -558
226 -748 255 -161 25 -450 23 -615 -5 -121 -20 -336 -71 -448 -105 -57 -17
-57 -19 2 82 245 416 718 631 1201 546z m-1389 -731 c26 -21 48 -41 49 -44 0
-4 -11 -10 -25 -13 -13 -3 -32 -20 -40 -36 -19 -37 -10 -38 29 -2 16 15 7 0
-21 -33 -27 -33 -62 -80 -77 -105 l-26 -45 6 50 c3 28 12 75 20 106 17 69 18
125 2 135 -10 6 6 18 30 23 2 1 26 -16 53 -36z m1364 -37 c141 -19 297 -47
291 -53 -5 -5 -481 26 -503 33 -7 2 -13 14 -13 27 0 23 2 23 58 16 31 -5 107
-15 167 -23z m-855 -26 c63 -5 218 -14 344 -20 126 -6 233 -13 237 -16 5 -3 9
-12 9 -19 0 -10 -8 -13 -27 -10 -16 3 -174 16 -353 30 -179 14 -361 30 -405
34 l-80 8 80 1 c44 1 132 -3 195 -8z m1975 -145 c38 -17 95 -63 95 -78 0 -4
14 -26 30 -49 34 -46 36 -55 16 -55 -8 0 -14 3 -13 6 3 10 -36 50 -44 45 -4
-2 -10 4 -14 15 -3 11 -22 25 -41 31 -45 15 -224 100 -224 106 0 11 159 -6
195 -21z m-2108 -230 c112 -74 62 -255 -70 -255 -80 0 -137 56 -137 135 0 60
24 100 75 126 45 22 91 20 132 -6z m1844 0 c63 -33 89 -132 52 -196 -19 -32
-85 -69 -122 -69 -32 0 -89 29 -107 54 -31 45 -36 93 -15 141 34 76 119 107
192 70z"/>
<path d="M1590 2723 c-17 -12 -25 -13 -28 -5 -5 16 -29 15 -35 0 -4 -10 -6
-10 -6 0 -1 15 -53 16 -69 0 -8 -8 -12 -9 -12 -1 0 8 -29 11 -87 10 -87 -2
-88 -2 -91 -28 -2 -20 2 -28 17 -32 15 -3 21 0 21 10 0 12 3 13 14 4 10 -9 16
-9 21 -1 5 8 11 8 20 0 15 -12 35 -6 35 10 0 5 -7 7 -15 4 -8 -4 -15 -2 -15 4
0 5 9 12 20 15 15 4 20 0 20 -14 0 -10 5 -19 10 -19 6 0 10 7 10 16 0 8 5 12
10 9 6 -4 8 -11 5 -16 -9 -13 9 -11 23 3 9 9 12 9 13 -2 0 -10 4 -7 9 5 7 17
9 17 9 3 1 -12 9 -18 24 -18 12 0 40 0 61 0 22 0 43 5 47 11 5 8 8 7 12 -2 4
-8 5 -1 4 15 -3 36 -15 41 -47 19z"/>
</g>
</svg>
